<svg width="30" height="31" viewBox="0 0 30 31" fill="none" xmlns="http://www.w3.org/2000/svg">
  <path
    d="M26.8664 14.5564L25.2097 12.8997C24.6985 12.3884 23.8779 12.3801 23.3769 12.8811L21.7534 14.5047C21.2524 15.0057 21.2607 15.8263 21.7718 16.3374L23.4286 17.9942C23.9398 18.5054 24.7604 18.5137 25.2614 18.0127L26.8849 16.3891C27.3859 15.8881 27.3777 15.0676 26.8664 14.5564Z"
    fill="url(#paint0_linear_2074_65350)"
  />
  <path
    d="M16.8676 11.6071L18.3212 13.0668C18.8891 13.7044 19.2291 14.5122 19.2855 15.3583L19.2807 15.4726C19.2447 16.3186 18.9204 17.1207 18.3622 17.7451L16.9436 19.1696C16.6965 19.4177 16.5596 19.7563 16.5632 20.1109C16.5667 20.4654 16.7105 20.8069 16.9627 21.0601L18.6646 22.7692C18.9168 23.0224 19.2569 23.1667 19.6099 23.1702C19.963 23.1738 20.3002 23.0364 20.5474 22.7882L22.2153 21.1134C22.4624 20.8652 22.5993 20.5266 22.5957 20.1721C22.5921 19.8175 22.4484 19.476 22.1962 19.2228L20.7487 17.7692C20.1778 17.1335 19.8374 16.3246 19.7843 15.4777L19.7772 15.3633C19.8153 14.5178 20.1392 13.7164 20.6956 13.0908L22.1202 11.6604C22.3673 11.4123 22.5042 11.0737 22.5006 10.7191C22.497 10.3645 22.3534 10.0231 22.1011 9.76983L20.3992 8.06081C20.147 7.80758 19.807 7.66332 19.4539 7.65974C19.1008 7.65615 18.7636 7.79357 18.5165 8.04174L16.8485 9.71659C16.6014 9.96474 16.4645 10.3033 16.4681 10.6579C16.4717 11.0124 16.6154 11.3539 16.8676 11.6071Z"
    fill="url(#paint1_linear_2074_65350)"
  />
  <path
    d="M17.7804 24.1766L16.3394 22.7353C15.7777 22.0971 15.4532 21.2847 15.4208 20.4351L15.4207 20.1109C15.4653 19.2666 15.7981 18.4632 16.3634 17.8347L17.8045 16.3934C18.0524 16.1422 18.1915 15.8035 18.1915 15.4505C18.1915 15.0975 18.0524 14.7588 17.8045 14.5076L16.3634 13.0663C15.7935 12.4462 15.4543 11.6489 15.4028 10.8082V10.4839C15.4473 9.63966 15.7801 8.83626 16.3454 8.20778L17.7804 6.77247C18.0304 6.52239 18.1709 6.18322 18.171 5.82958C18.171 5.47594 18.0305 5.13679 17.7804 4.88671L16.0932 3.19914C15.8432 2.94909 15.5041 2.80859 15.1506 2.80859C14.797 2.8086 14.4579 2.94909 14.2079 3.19916L12.5207 4.88671C12.2706 5.13678 12.1302 5.47596 12.1302 5.82959C12.1302 6.18323 12.2706 6.52242 12.5206 6.77247L13.9557 8.20778C14.5339 8.84161 14.8736 9.65695 14.9164 10.5139V10.8383C14.8698 11.682 14.5373 12.4848 13.9737 13.1143L12.5327 14.5557C12.2847 14.8068 12.1457 15.1456 12.1457 15.4986C12.1457 15.8515 12.2847 16.1903 12.5327 16.4414L13.9737 17.8828C14.527 18.5101 14.8528 19.3056 14.8984 20.1409V20.4651C14.8518 21.3089 14.5192 22.1117 13.9557 22.7413L12.5147 24.1826C12.2667 24.4338 12.1277 24.7725 12.1277 25.1255C12.1277 25.4785 12.2667 25.8172 12.5147 26.0683L14.2079 27.7619C14.459 28.0099 14.7977 28.149 15.1506 28.149C15.5035 28.149 15.8421 28.01 16.0932 27.7619L17.7865 26.0683C18.0354 25.8162 18.1746 25.4756 18.1734 25.1212C18.1723 24.7668 18.031 24.4272 17.7804 24.1766Z"
    fill="url(#paint2_linear_2074_65350)"
  />
  <path
    d="M8.36608 14.553L6.57481 12.7618C6.02208 12.209 5.16625 12.1687 4.66326 12.6717L3.03321 14.3017C2.53022 14.8047 2.57056 15.6606 3.12329 16.2133L4.91456 18.0045C5.46729 18.5573 6.3231 18.5976 6.82609 18.0946L8.45611 16.4646C8.95911 15.9616 8.91883 15.1058 8.36608 14.553Z"
    fill="url(#paint3_linear_2074_65350)"
  />
  <path
    d="M13.1324 19.1113L11.6849 17.6637C11.114 17.0305 10.7736 16.225 10.7205 15.3816L10.7134 15.2676C10.752 14.42 11.0804 13.6171 11.6437 12.9927L13.0682 11.5681C13.3052 11.3251 13.4375 10.9981 13.4374 10.6551C13.4372 10.3123 13.3048 9.97993 13.0676 9.72746L11.3354 7.99521C11.0832 7.743 10.7432 7.59934 10.3901 7.59577C10.037 7.5922 9.69978 7.72903 9.45266 7.97619L7.78477 9.64409C7.53762 9.89128 7.40079 10.2285 7.40433 10.5816C7.4079 10.9347 7.55159 11.2747 7.80379 11.5269L9.2574 12.9805C9.82539 13.6156 10.1653 14.42 10.2217 15.2627L10.2169 15.3765C10.1808 16.219 9.85668 17.0178 9.29843 17.6396L7.87986 19.0582C7.75697 19.1811 7.66012 19.3275 7.59484 19.4892C7.52957 19.6508 7.49716 19.8244 7.49949 19.9999C7.5018 20.1755 7.53884 20.3495 7.60843 20.5121C7.67802 20.6746 7.77878 20.8225 7.90494 20.9471L9.60082 22.643C9.85297 22.8952 10.193 23.0389 10.5461 23.0424C10.8992 23.046 11.2364 22.9092 11.4836 22.662L13.1514 20.9941C13.3986 20.747 13.5354 20.4097 13.5319 20.0566C13.5283 19.7035 13.3846 19.3635 13.1324 19.1113Z"
    fill="url(#paint4_linear_2074_65350)"
  />
  <defs>
    <linearGradient
      id="paint0_linear_2074_65350"
      x1="4.65137"
      y1="3.4904"
      x2="25.6264"
      y2="24.4655"
      gradientUnits="userSpaceOnUse"
    >
      <stop stop-color="#39AFEA" />
      <stop offset="0.155" stop-color="#548FE8" />
      <stop offset="0.5" stop-color="#5460E8" />
      <stop offset="0.805" stop-color="#7754E8" />
      <stop offset="1" stop-color="#A952EB" />
    </linearGradient>
    <linearGradient
      id="paint1_linear_2074_65350"
      x1="4.68509"
      y1="3.46752"
      x2="25.7296"
      y2="24.4251"
      gradientUnits="userSpaceOnUse"
    >
      <stop stop-color="#39AFEA" />
      <stop offset="0.155" stop-color="#548FE8" />
      <stop offset="0.5" stop-color="#5460E8" />
      <stop offset="0.805" stop-color="#7754E8" />
      <stop offset="1" stop-color="#A952EB" />
    </linearGradient>
    <linearGradient
      id="paint2_linear_2074_65350"
      x1="4.69873"
      y1="3.48183"
      x2="25.6768"
      y2="24.4555"
      gradientUnits="userSpaceOnUse"
    >
      <stop stop-color="#39AFEA" />
      <stop offset="0.155" stop-color="#548FE8" />
      <stop offset="0.5" stop-color="#5460E8" />
      <stop offset="0.805" stop-color="#7754E8" />
      <stop offset="1" stop-color="#A952EB" />
    </linearGradient>
    <linearGradient
      id="paint3_linear_2074_65350"
      x1="4.6379"
      y1="3.43319"
      x2="25.6965"
      y2="24.4918"
      gradientUnits="userSpaceOnUse"
    >
      <stop stop-color="#39AFEA" />
      <stop offset="0.155" stop-color="#548FE8" />
      <stop offset="0.5" stop-color="#5460E8" />
      <stop offset="0.805" stop-color="#7754E8" />
      <stop offset="1" stop-color="#A952EB" />
    </linearGradient>
    <linearGradient
      id="paint4_linear_2074_65350"
      x1="4.69684"
      y1="3.51248"
      x2="25.6549"
      y2="24.47"
      gradientUnits="userSpaceOnUse"
    >
      <stop stop-color="#39AFEA" />
      <stop offset="0.155" stop-color="#548FE8" />
      <stop offset="0.5" stop-color="#5460E8" />
      <stop offset="0.805" stop-color="#7754E8" />
      <stop offset="1" stop-color="#A952EB" />
    </linearGradient>
  </defs>
</svg>
