<svg width="116" height="11" viewBox="0 0 116 11" fill="none" xmlns="http://www.w3.org/2000/svg">
<path d="M0.481 5.94152C0.481 5.05752 0.684667 4.26452 1.092 3.56252C1.508 2.86052 2.067 2.31452 2.769 1.92451C3.47967 1.52585 4.25533 1.32651 5.096 1.32651C6.058 1.32651 6.91167 1.56485 7.657 2.04151C8.411 2.50952 8.957 3.17685 9.295 4.04352H7.514C7.28 3.56685 6.955 3.21152 6.539 2.97752C6.123 2.74352 5.642 2.62652 5.096 2.62652C4.498 2.62652 3.965 2.76085 3.497 3.02952C3.029 3.29818 2.66067 3.68385 2.392 4.18652C2.132 4.68918 2.002 5.27418 2.002 5.94152C2.002 6.60885 2.132 7.19385 2.392 7.69652C2.66067 8.19918 3.029 8.58918 3.497 8.86652C3.965 9.13518 4.498 9.26952 5.096 9.26952C5.642 9.26952 6.123 9.15252 6.539 8.91852C6.955 8.68452 7.28 8.32918 7.514 7.85252H9.295C8.957 8.71918 8.411 9.38652 7.657 9.85452C6.91167 10.3225 6.058 10.5565 5.096 10.5565C4.24667 10.5565 3.471 10.3615 2.769 9.97152C2.067 9.57285 1.508 9.02252 1.092 8.32052C0.684667 7.61852 0.481 6.82552 0.481 5.94152ZM10.5357 6.86452C10.5357 6.14518 10.683 5.50818 10.9777 4.95352C11.281 4.39885 11.6884 3.96985 12.1997 3.66651C12.7197 3.35452 13.2917 3.19852 13.9157 3.19852C14.479 3.19852 14.9687 3.31118 15.3847 3.53652C15.8094 3.75318 16.1474 4.02618 16.3987 4.35552V3.31552H17.8937V10.4785H16.3987V9.41252C16.1474 9.75052 15.805 10.0322 15.3717 10.2575C14.9384 10.4828 14.4444 10.5955 13.8897 10.5955C13.2744 10.5955 12.711 10.4395 12.1997 10.1275C11.6884 9.80685 11.281 9.36485 10.9777 8.80152C10.683 8.22952 10.5357 7.58385 10.5357 6.86452ZM16.3987 6.89052C16.3987 6.39652 16.2947 5.96752 16.0867 5.60352C15.8874 5.23952 15.623 4.96218 15.2937 4.77152C14.9644 4.58085 14.609 4.48552 14.2277 4.48552C13.8464 4.48552 13.491 4.58085 13.1617 4.77152C12.8324 4.95352 12.5637 5.22652 12.3557 5.59052C12.1564 5.94585 12.0567 6.37052 12.0567 6.86452C12.0567 7.35852 12.1564 7.79185 12.3557 8.16452C12.5637 8.53718 12.8324 8.82318 13.1617 9.02252C13.4997 9.21318 13.855 9.30852 14.2277 9.30852C14.609 9.30852 14.9644 9.21318 15.2937 9.02252C15.623 8.83185 15.8874 8.55452 16.0867 8.19052C16.2947 7.81785 16.3987 7.38452 16.3987 6.89052ZM21.3222 4.35552C21.5389 3.99152 21.8249 3.70985 22.1802 3.51052C22.5442 3.30252 22.9732 3.19852 23.4672 3.19852V4.73252H23.0902C22.5096 4.73252 22.0676 4.87985 21.7642 5.17452C21.4696 5.46918 21.3222 5.98052 21.3222 6.70852V10.4785H19.8402V3.31552H21.3222V4.35552ZM31.3945 6.72152C31.3945 6.99018 31.3772 7.23285 31.3425 7.44952H25.8695C25.9128 8.02152 26.1252 8.48085 26.5065 8.82752C26.8878 9.17418 27.3558 9.34752 27.9105 9.34752C28.7078 9.34752 29.2712 9.01385 29.6005 8.34652H31.1995C30.9828 9.00518 30.5885 9.54685 30.0165 9.97152C29.4532 10.3875 28.7512 10.5955 27.9105 10.5955C27.2258 10.5955 26.6105 10.4438 26.0645 10.1405C25.5272 9.82852 25.1025 9.39518 24.7905 8.84052C24.4872 8.27718 24.3355 7.62718 24.3355 6.89052C24.3355 6.15385 24.4828 5.50818 24.7775 4.95352C25.0808 4.39018 25.5012 3.95685 26.0385 3.65352C26.5845 3.35018 27.2085 3.19852 27.9105 3.19852C28.5865 3.19852 29.1888 3.34585 29.7175 3.64052C30.2462 3.93518 30.6578 4.35118 30.9525 4.88852C31.2472 5.41718 31.3945 6.02818 31.3945 6.72152ZM29.8475 6.25352C29.8388 5.70752 29.6438 5.26985 29.2625 4.94052C28.8812 4.61118 28.4088 4.44652 27.8455 4.44652C27.3342 4.44652 26.8965 4.61118 26.5325 4.94052C26.1685 5.26118 25.9518 5.69885 25.8825 6.25352H29.8475ZM39.4179 6.72152C39.4179 6.99018 39.4006 7.23285 39.3659 7.44952H33.8929C33.9363 8.02152 34.1486 8.48085 34.5299 8.82752C34.9113 9.17418 35.3793 9.34752 35.9339 9.34752C36.7313 9.34752 37.2946 9.01385 37.6239 8.34652H39.2229C39.0063 9.00518 38.6119 9.54685 38.0399 9.97152C37.4766 10.3875 36.7746 10.5955 35.9339 10.5955C35.2493 10.5955 34.6339 10.4438 34.0879 10.1405C33.5506 9.82852 33.1259 9.39518 32.8139 8.84052C32.5106 8.27718 32.3589 7.62718 32.3589 6.89052C32.3589 6.15385 32.5063 5.50818 32.8009 4.95352C33.1043 4.39018 33.5246 3.95685 34.0619 3.65352C34.6079 3.35018 35.2319 3.19852 35.9339 3.19852C36.6099 3.19852 37.2123 3.34585 37.7409 3.64052C38.2696 3.93518 38.6813 4.35118 38.9759 4.88852C39.2706 5.41718 39.4179 6.02818 39.4179 6.72152ZM37.8709 6.25352C37.8623 5.70752 37.6673 5.26985 37.2859 4.94052C36.9046 4.61118 36.4323 4.44652 35.8689 4.44652C35.3576 4.44652 34.9199 4.61118 34.5559 4.94052C34.1919 5.26118 33.9753 5.69885 33.9059 6.25352H37.8709ZM42.3584 4.35552C42.575 3.99152 42.861 3.70985 43.2164 3.51052C43.5804 3.30252 44.0094 3.19852 44.5034 3.19852V4.73252H44.1264C43.5457 4.73252 43.1037 4.87985 42.8004 5.17452C42.5057 5.46918 42.3584 5.98052 42.3584 6.70852V10.4785H40.8764V3.31552H42.3584V4.35552ZM45.3716 5.94152C45.3716 5.05752 45.5753 4.26452 45.9826 3.56252C46.3986 2.86052 46.9576 2.31452 47.6596 1.92451C48.3703 1.52585 49.146 1.32651 49.9866 1.32651C50.9486 1.32651 51.8023 1.56485 52.5476 2.04151C53.3016 2.50952 53.8476 3.17685 54.1856 4.04352H52.4046C52.1706 3.56685 51.8456 3.21152 51.4296 2.97752C51.0136 2.74352 50.5326 2.62652 49.9866 2.62652C49.3886 2.62652 48.8556 2.76085 48.3876 3.02952C47.9196 3.29818 47.5513 3.68385 47.2826 4.18652C47.0226 4.68918 46.8926 5.27418 46.8926 5.94152C46.8926 6.60885 47.0226 7.19385 47.2826 7.69652C47.5513 8.19918 47.9196 8.58918 48.3876 8.86652C48.8556 9.13518 49.3886 9.26952 49.9866 9.26952C50.5326 9.26952 51.0136 9.15252 51.4296 8.91852C51.8456 8.68452 52.1706 8.32918 52.4046 7.85252H54.1856C53.8476 8.71918 53.3016 9.38652 52.5476 9.85452C51.8023 10.3225 50.9486 10.5565 49.9866 10.5565C49.1373 10.5565 48.3616 10.3615 47.6596 9.97152C46.9576 9.57285 46.3986 9.02252 45.9826 8.32052C45.5753 7.61852 45.3716 6.82552 45.3716 5.94152ZM59.0273 10.5955C58.3513 10.5955 57.7403 10.4438 57.1943 10.1405C56.6483 9.82852 56.2193 9.39518 55.9073 8.84052C55.5953 8.27718 55.4393 7.62718 55.4393 6.89052C55.4393 6.16252 55.5996 5.51685 55.9203 4.95352C56.241 4.39018 56.6786 3.95685 57.2333 3.65352C57.788 3.35018 58.4076 3.19852 59.0923 3.19852C59.777 3.19852 60.3966 3.35018 60.9513 3.65352C61.506 3.95685 61.9436 4.39018 62.2643 4.95352C62.585 5.51685 62.7453 6.16252 62.7453 6.89052C62.7453 7.61852 62.5806 8.26418 62.2513 8.82752C61.922 9.39085 61.4713 9.82852 60.8993 10.1405C60.336 10.4438 59.712 10.5955 59.0273 10.5955ZM59.0273 9.30852C59.4086 9.30852 59.764 9.21752 60.0933 9.03552C60.4313 8.85352 60.7043 8.58052 60.9123 8.21652C61.1203 7.85252 61.2243 7.41052 61.2243 6.89052C61.2243 6.37052 61.1246 5.93285 60.9253 5.57752C60.726 5.21352 60.4616 4.94052 60.1323 4.75852C59.803 4.57652 59.4476 4.48552 59.0663 4.48552C58.685 4.48552 58.3296 4.57652 58.0003 4.75852C57.6796 4.94052 57.424 5.21352 57.2333 5.57752C57.0426 5.93285 56.9473 6.37052 56.9473 6.89052C56.9473 7.66185 57.1423 8.25985 57.5323 8.68452C57.931 9.10052 58.4293 9.30852 59.0273 9.30852ZM67.8244 3.19852C68.3877 3.19852 68.8904 3.31552 69.3324 3.54951C69.783 3.78352 70.134 4.13018 70.3854 4.58952C70.6367 5.04885 70.7624 5.60352 70.7624 6.25352V10.4785H69.2934V6.47452C69.2934 5.83318 69.133 5.34352 68.8124 5.00552C68.4917 4.65885 68.054 4.48552 67.4994 4.48552C66.9447 4.48552 66.5027 4.65885 66.1734 5.00552C65.8527 5.34352 65.6924 5.83318 65.6924 6.47452V10.4785H64.2104V3.31552H65.6924V4.13452C65.935 3.83985 66.2427 3.61018 66.6154 3.44552C66.9967 3.28085 67.3997 3.19852 67.8244 3.19852ZM76.2667 3.19852C76.8301 3.19852 77.3327 3.31552 77.7747 3.54951C78.2254 3.78352 78.5764 4.13018 78.8277 4.58952C79.0791 5.04885 79.2047 5.60352 79.2047 6.25352V10.4785H77.7357V6.47452C77.7357 5.83318 77.5754 5.34352 77.2547 5.00552C76.9341 4.65885 76.4964 4.48552 75.9417 4.48552C75.3871 4.48552 74.9451 4.65885 74.6157 5.00552C74.2951 5.34352 74.1347 5.83318 74.1347 6.47452V10.4785H72.6527V3.31552H74.1347V4.13452C74.3774 3.83985 74.6851 3.61018 75.0577 3.44552C75.4391 3.28085 75.8421 3.19852 76.2667 3.19852ZM87.6601 6.72152C87.6601 6.99018 87.6428 7.23285 87.6081 7.44952H82.1351C82.1785 8.02152 82.3908 8.48085 82.7721 8.82752C83.1535 9.17418 83.6215 9.34752 84.1761 9.34752C84.9735 9.34752 85.5368 9.01385 85.8661 8.34652H87.4651C87.2485 9.00518 86.8541 9.54685 86.2821 9.97152C85.7188 10.3875 85.0168 10.5955 84.1761 10.5955C83.4915 10.5955 82.8761 10.4438 82.3301 10.1405C81.7928 9.82852 81.3681 9.39518 81.0561 8.84052C80.7528 8.27718 80.6011 7.62718 80.6011 6.89052C80.6011 6.15385 80.7485 5.50818 81.0431 4.95352C81.3465 4.39018 81.7668 3.95685 82.3041 3.65352C82.8501 3.35018 83.4741 3.19852 84.1761 3.19852C84.8521 3.19852 85.4545 3.34585 85.9831 3.64052C86.5118 3.93518 86.9235 4.35118 87.2181 4.88852C87.5128 5.41718 87.6601 6.02818 87.6601 6.72152ZM86.1131 6.25352C86.1045 5.70752 85.9095 5.26985 85.5281 4.94052C85.1468 4.61118 84.6745 4.44652 84.1111 4.44652C83.5998 4.44652 83.1621 4.61118 82.7981 4.94052C82.4341 5.26118 82.2175 5.69885 82.1481 6.25352H86.1131ZM88.6246 6.89052C88.6246 6.15385 88.7719 5.50818 89.0666 4.95352C89.3699 4.39018 89.7859 3.95685 90.3146 3.65352C90.8432 3.35018 91.4499 3.19852 92.1346 3.19852C93.0012 3.19852 93.7162 3.40652 94.2796 3.82252C94.8516 4.22985 95.2372 4.81485 95.4366 5.57752H93.8376C93.7076 5.22218 93.4996 4.94485 93.2136 4.74552C92.9276 4.54618 92.5679 4.44652 92.1346 4.44652C91.5279 4.44652 91.0426 4.66318 90.6786 5.09652C90.3232 5.52118 90.1456 6.11918 90.1456 6.89052C90.1456 7.66185 90.3232 8.26418 90.6786 8.69752C91.0426 9.13085 91.5279 9.34752 92.1346 9.34752C92.9926 9.34752 93.5602 8.97052 93.8376 8.21652H95.4366C95.2286 8.94452 94.8386 9.52518 94.2666 9.95852C93.6946 10.3832 92.9839 10.5955 92.1346 10.5955C91.4499 10.5955 90.8432 10.4438 90.3146 10.1405C89.7859 9.82852 89.3699 9.39518 89.0666 8.84052C88.7719 8.27718 88.6246 7.62718 88.6246 6.89052ZM98.6425 4.52452V8.48952C98.6425 8.75818 98.7031 8.95318 98.8245 9.07452C98.9545 9.18718 99.1711 9.24352 99.4745 9.24352H100.384V10.4785H99.2145C98.5471 10.4785 98.0358 10.3225 97.6805 10.0105C97.3251 9.69852 97.1475 9.19152 97.1475 8.48952V4.52452H96.3025V3.31552H97.1475V1.53452H98.6425V3.31552H100.384V4.52452H98.6425ZM102.348 10.5695C102.08 10.5695 101.854 10.4785 101.672 10.2965C101.49 10.1145 101.399 9.88918 101.399 9.62052C101.399 9.35185 101.49 9.12652 101.672 8.94452C101.854 8.76252 102.08 8.67152 102.348 8.67152C102.608 8.67152 102.829 8.76252 103.011 8.94452C103.193 9.12652 103.284 9.35185 103.284 9.62052C103.284 9.88918 103.193 10.1145 103.011 10.2965C102.829 10.4785 102.608 10.5695 102.348 10.5695ZM104.392 6.86452C104.392 6.14518 104.539 5.50818 104.834 4.95352C105.137 4.39885 105.545 3.96985 106.056 3.66651C106.576 3.35452 107.148 3.19852 107.772 3.19852C108.335 3.19852 108.825 3.31118 109.241 3.53652C109.666 3.75318 110.004 4.02618 110.255 4.35552V3.31552H111.75V10.4785H110.255V9.41252C110.004 9.75052 109.661 10.0322 109.228 10.2575C108.795 10.4828 108.301 10.5955 107.746 10.5955C107.131 10.5955 106.567 10.4395 106.056 10.1275C105.545 9.80685 105.137 9.36485 104.834 8.80152C104.539 8.22952 104.392 7.58385 104.392 6.86452ZM110.255 6.89052C110.255 6.39652 110.151 5.96752 109.943 5.60352C109.744 5.23952 109.479 4.96218 109.15 4.77152C108.821 4.58085 108.465 4.48552 108.084 4.48552C107.703 4.48552 107.347 4.58085 107.018 4.77152C106.689 4.95352 106.42 5.22652 106.212 5.59052C106.013 5.94585 105.913 6.37052 105.913 6.86452C105.913 7.35852 106.013 7.79185 106.212 8.16452C106.42 8.53718 106.689 8.82318 107.018 9.02252C107.356 9.21318 107.711 9.30852 108.084 9.30852C108.465 9.30852 108.821 9.21318 109.15 9.02252C109.479 8.83185 109.744 8.55452 109.943 8.19052C110.151 7.81785 110.255 7.38452 110.255 6.89052ZM114.451 2.36652C114.182 2.36652 113.957 2.27552 113.775 2.09352C113.593 1.91152 113.502 1.68618 113.502 1.41752C113.502 1.14885 113.593 0.923515 113.775 0.741515C113.957 0.559515 114.182 0.468515 114.451 0.468515C114.711 0.468515 114.932 0.559515 115.114 0.741515C115.296 0.923515 115.387 1.14885 115.387 1.41752C115.387 1.68618 115.296 1.91152 115.114 2.09352C114.932 2.27552 114.711 2.36652 114.451 2.36652ZM115.179 3.31552V10.4785H113.697V3.31552H115.179Z" fill="#5467E8"/>
</svg>
