<svg width="138" height="73" viewBox="0 0 138 73" fill="none" xmlns="http://www.w3.org/2000/svg">
<path d="M-0.0200421 5.73V66.73C-0.057667 68.2084 0.49309 69.6412 1.51124 70.7137C2.52939 71.7862 3.93165 72.4107 5.40996 72.45H106.41C108.108 72.4055 109.72 71.6885 110.89 70.4565C112.06 69.2246 112.693 67.5785 112.65 65.88V34.88C112.666 34.7089 112.732 34.546 112.838 34.4113C112.945 34.2765 113.088 34.1755 113.251 34.1205C113.414 34.0655 113.589 34.0588 113.756 34.1013C113.923 34.1438 114.073 34.2337 114.19 34.36C116.839 37.4356 118.876 40.9894 120.19 44.83C120.287 45.0492 120.466 45.2215 120.688 45.3094C120.911 45.3974 121.16 45.394 121.38 45.3L134.38 40.12C135.744 39.5329 136.832 38.4476 137.423 37.0854C138.014 35.7233 138.063 34.187 137.56 32.79C135.772 27.7837 133.519 22.956 130.83 18.37C127.493 12.8038 122.76 8.2054 117.1 5.03C111.247 1.66333 103.827 -0.00333264 94.84 0.0300007H5.43996C3.96167 0.0667252 2.55792 0.686659 1.53501 1.75453C0.512107 2.82239 -0.0469043 4.2515 -0.0200421 5.73V5.73ZM92.54 28.05C92.6503 28.0446 92.7606 28.0611 92.8646 28.0984C92.9686 28.1357 93.0642 28.1931 93.1459 28.2675C93.2277 28.3418 93.2939 28.4315 93.341 28.5314C93.388 28.6314 93.4148 28.7397 93.42 28.85V43.63C93.4149 43.7399 93.388 43.8477 93.3408 43.9472C93.2937 44.0466 93.2272 44.1357 93.1453 44.2092C93.0634 44.2827 92.9677 44.3392 92.8638 44.3754C92.7599 44.4116 92.6498 44.4268 92.54 44.42H65.54C65.4301 44.4268 65.32 44.4116 65.2161 44.3754C65.1122 44.3392 65.0165 44.2827 64.9346 44.2092C64.8527 44.1357 64.7863 44.0466 64.7391 43.9472C64.692 43.8477 64.665 43.7399 64.66 43.63V28.85C64.6651 28.7397 64.6919 28.6314 64.739 28.5314C64.786 28.4315 64.8523 28.3418 64.934 28.2675C65.0158 28.1931 65.1113 28.1357 65.2153 28.0984C65.3193 28.0611 65.4296 28.0446 65.54 28.05H92.54ZM45.09 28.05C45.2003 28.0446 45.3106 28.0611 45.4146 28.0984C45.5186 28.1357 45.6142 28.1931 45.6959 28.2675C45.7776 28.3418 45.8439 28.4315 45.891 28.5314C45.938 28.6314 45.9648 28.7397 45.97 28.85V43.63C45.9649 43.7399 45.938 43.8477 45.8908 43.9472C45.8437 44.0466 45.7772 44.1357 45.6953 44.2092C45.6134 44.2827 45.5177 44.3392 45.4138 44.3754C45.3099 44.4116 45.1998 44.4268 45.09 44.42H19.89C19.6688 44.4309 19.4522 44.3541 19.2874 44.2061C19.1226 44.0582 19.0229 43.8511 19.01 43.63V28.85C19.0229 28.6281 19.1222 28.42 19.2868 28.2705C19.4513 28.1209 19.6678 28.0418 19.89 28.05H45.09Z" fill="#593A2E"/>
</svg>
